<svg id="Layer_1" xmlns="http://www.w3.org/2000/svg" viewBox="0 0 24 24"><style>.st6{fill:#fff}</style><linearGradient id="SVGID_1_" gradientUnits="userSpaceOnUse" x1="12" y1="24" x2="12"><stop offset="0" stop-color="#2fa943"/><stop offset="1" stop-color="#a0c63c"/></linearGradient><path fill="url(#SVGID_1_)" d="M0 0h24v24H0z"/><g><path class="st6" d="M10.732 16.356H8.79a1.269 1.269 0 0 1-1.267-1.267v-6.3c0-.698.568-1.267 1.267-1.267h1.942a.75.75 0 0 0 0-1.5H8.79a2.77 2.77 0 0 0-2.767 2.767v6.3a2.77 2.77 0 0 0 2.767 2.767h1.942a.75.75 0 0 0 0-1.5z"/><path class="st6" d="M16.843 11.129h-3.945l1.738-1.738a.75.75 0 1 0-1.061-1.061l-3.079 3.079a.75.75 0 0 0 0 1.06l3.079 3.078a.75.75 0 1 0 1.06-1.061l-1.859-1.858h4.066a.75.75 0 0 0 .001-1.499z"/></g></svg>